<?xml version="1.0" encoding="utf-8"?>
<!-- Generator: Adobe Illustrator 22.0.1, SVG Export Plug-In . SVG Version: 6.00 Build 0)  -->
<svg version="1.1" id="Layer_1" xmlns="http://www.w3.org/2000/svg" xmlns:xlink="http://www.w3.org/1999/xlink" x="0px" y="0px"
	 viewBox="0 0 488 95" style="enable-background:new 0 0 488 95;" xml:space="preserve">
<style type="text/css">
	.st0{fill:#FDAB00;}
</style>
<g>
	<polygon class="st0" points="30.8,90.9 2.6,90.9 42.4,4 70.6,4 	"/>
	<polygon class="st0" points="68.4,90.9 40.2,90.9 80,4 108.2,4 	"/>
	<polygon class="st0" points="106,90.9 77.8,90.9 117.6,4 145.8,4 	"/>
	<polygon class="st0" points="143.6,90.9 115.4,90.9 155.2,4 183.4,4 	"/>
	<polygon class="st0" points="181.2,90.9 153,90.9 192.7,4 220.9,4 	"/>
	<polygon class="st0" points="218.7,90.9 190.5,90.9 230.3,4 258.5,4 	"/>
	<polygon class="st0" points="256.3,90.9 228.1,90.9 267.9,4 296.1,4 	"/>
	<polygon class="st0" points="293.9,90.9 265.7,90.9 305.5,4 333.7,4 	"/>
	<polygon class="st0" points="331.5,90.9 303.3,90.9 343.1,4 371.3,4 	"/>
	<polygon class="st0" points="369.1,90.9 340.9,90.9 380.7,4 408.8,4 	"/>
	<polygon class="st0" points="406.6,90.9 378.5,90.9 418.2,4 446.4,4 	"/>
	<polygon class="st0" points="444.2,90.9 416,90.9 455.8,4 484,4 	"/>
</g>
</svg>
